<svg width="108" height="25" viewBox="0 0 108 25" fill="none" xmlns="http://www.w3.org/2000/svg">
<g opacity="0.95">
<path fill-rule="evenodd" clip-rule="evenodd" d="M36.3722 0.25812C37.9946 2.33383 39.1595 3.16735 41.7871 4.24285L42.2393 4.40955V9.78705L41.3935 9.57732C39.9742 9.2457 38.6117 8.70197 37.3509 7.96407V24.6935H27.7764V7.96945C26.5138 8.70734 25.1496 9.25105 23.7286 9.5827L22.8828 9.79242V4.41493L23.3137 4.24285C25.936 3.18886 27.1009 2.33383 28.7339 0.25812L28.9254 0H36.1807L36.3722 0.25812ZM36.6435 6.65196C38.0975 7.74889 39.7627 8.52561 41.5318 8.93202V4.88277C38.7765 3.775 37.5318 2.83932 35.8403 0.68832H33.2286V24.0051H36.6435V6.65196Z" fill="#44C994"/>
<path fill-rule="evenodd" clip-rule="evenodd" d="M77.3345 0.25812C78.9569 2.33383 80.1218 3.16735 82.7441 4.24285L83.2015 4.40955V9.78705L82.3558 9.57732C80.9345 9.24667 79.5701 8.7029 78.3079 7.96407V24.6935H68.7335V7.96945C67.4713 8.70828 66.1069 9.25205 64.6856 9.5827L63.8398 9.79242V4.41493L64.2707 4.24285C66.893 3.18886 68.0845 2.33383 69.6803 0.25812L69.8877 0H77.1271L77.3345 0.25812ZM77.6005 6.65196C79.0569 7.74806 80.7237 8.52465 82.4941 8.93202V4.88277C79.7335 3.775 78.4888 2.83932 76.7973 0.68832H74.1856V24.0051H77.6005V6.65196Z" fill="#44C994"/>
<path d="M53.0105 3.76465C49.3615 3.76465 47.8828 6.24368 47.8828 12.3364C47.8828 18.4291 49.3722 20.9027 53.0211 20.9027C56.6701 20.9027 58.1594 18.4237 58.1594 12.3364C58.1594 6.24905 56.6594 3.76465 53.0105 3.76465Z" fill="#44C994"/>
<path d="M53.0119 0C46.5172 0 43.6289 3.85567 43.6289 12.5027C43.6289 21.1497 46.5225 25 53.0172 25C59.5119 25 62.4056 21.1443 62.4056 12.5027C62.4056 3.86105 59.5066 0 53.0119 0ZM53.0119 24.3117C46.9906 24.3117 44.3044 20.6711 44.3044 12.4812C44.3044 4.19983 46.9055 0.650678 53.0119 0.650678C59.0545 0.68832 61.7141 4.32889 61.7141 12.5027C61.7141 20.7787 59.1183 24.3117 53.0119 24.3117Z" fill="#44C994"/>
</g>
<path d="M2.12061 14.4605H3.47322L5.21556 17.5662H7.76029L5.71992 14.1949C6.63694 13.8486 7.32471 13.0866 7.32471 11.5048C7.32471 9.02253 5.57091 8.56071 3.95465 8.56071H0V17.5662H2.12061V14.4605ZM2.12061 12.5439V10.4657H4.11513C4.56218 10.4657 5.16971 10.5581 5.16971 11.5048C5.16971 12.4631 4.56218 12.5439 4.11513 12.5439H2.12061Z" fill="white"/>
<path d="M12.8911 8.56071V17.5662H19.6083V15.6612H15.0117V13.9178H18.7601V12.0128H15.0117V10.4657H19.3791V8.56071H12.8911Z" fill="white"/>
<path d="M30.9676 17.5662H33.2372L30.1079 8.44525H27.609L24.4796 17.5662H26.7493L27.2192 16.0307H30.4976L30.9676 17.5662ZM28.5948 11.5626L28.8584 10.6505L29.1221 11.5626L29.9588 14.2989H27.7465L28.5948 11.5626Z" fill="white"/>
<path d="M40.4806 8.56071H38.36V17.5662H44.5499V15.6612H40.4806V8.56071Z" fill="white"/>
<path d="M53.082 17.751C54.9848 17.751 56.8647 16.9197 56.8303 14.7607C56.796 12.5439 55.5236 12.1745 53.082 12.0359C51.8326 11.9551 51.5345 11.8627 51.5231 11.3432C51.5116 10.5235 52.2911 10.2925 52.9101 10.281C54.0334 10.2579 54.641 10.6274 54.6639 11.6549L56.8189 11.3894C56.796 9.50744 55.5351 8.37598 52.9101 8.37598C51.0302 8.37598 49.3566 9.29962 49.4025 11.3894C49.4483 13.5253 51.1677 13.8024 52.9903 13.8832C54.3315 13.9525 54.7212 14.1949 54.7327 14.8069C54.7441 15.615 53.9073 15.8229 53.082 15.846C51.9587 15.8806 51.3511 15.4996 51.3282 14.472L49.1732 14.7376C49.1961 16.6195 50.1934 17.751 53.082 17.751Z" fill="white"/>
<path d="M64.4494 12.7748V10.4657H66.1574C66.6044 10.4657 67.1546 10.6735 67.1546 11.6203C67.1546 12.5786 66.6044 12.7748 66.1574 12.7748H64.4494ZM64.4494 14.6914H66.0427C67.659 14.6914 69.3096 14.1141 69.3096 11.6203C69.3096 9.13798 67.6131 8.56071 65.9969 8.56071H62.3288V17.5662H64.4494V14.6914Z" fill="white"/>
<path d="M78.5848 17.751C81.5995 17.751 82.8031 15.869 82.8031 13.0635C82.8031 10.2579 81.588 8.37598 78.5848 8.37598C75.5701 8.37598 74.3665 10.2579 74.3665 13.0635C74.3665 15.869 75.5816 17.751 78.5848 17.751ZM78.5848 10.281C80.2813 10.281 80.6596 11.6087 80.6596 13.0635C80.6596 14.5182 80.2813 15.846 78.5848 15.846C76.8883 15.846 76.51 14.5182 76.51 13.0635C76.51 11.6087 76.8883 10.281 78.5848 10.281Z" fill="white"/>
<path d="M90.5899 14.4605H91.9425L93.6849 17.5662H96.2296L94.1892 14.1949C95.1062 13.8486 95.794 13.0866 95.794 11.5048C95.794 9.02253 94.0402 8.56071 92.4239 8.56071H88.4693V17.5662H90.5899V14.4605ZM90.5899 12.5439V10.4657H92.5844C93.0315 10.4657 93.639 10.5581 93.639 11.5048C93.639 12.4631 93.0315 12.5439 92.5844 12.5439H90.5899Z" fill="white"/>
<path d="M105.186 10.4657H107.639V8.56071H100.612V10.4657H103.065V17.5662H105.186V10.4657Z" fill="white"/>
</svg>
